<svg width="412" height="576" viewBox="0 0 412 576" fill="none" xmlns="http://www.w3.org/2000/svg">
<g filter="url(#filter0_d_1888_10287)">
<rect x="8" y="8" width="380" height="544" fill="#A8AED5"/>
</g>
<path d="M73.944 490.224C72.696 490.224 71.672 489.168 71.672 487.952V474.64L65.88 489.392C65.688 489.872 65.208 490.224 64.664 490.224C64.12 490.224 63.64 489.872 63.448 489.392L57.656 474.64V487.952C57.656 489.168 56.664 490.224 55.416 490.224C54.136 490.224 53.112 489.168 53.112 487.952V472.144C53.112 470.096 54.776 468.432 56.824 468.432C58.424 468.432 59.768 469.424 60.312 470.832L64.664 481.968L69.048 470.832C69.56 469.424 70.936 468.432 72.504 468.432C74.584 468.432 76.248 470.096 76.248 472.144V487.952C76.248 489.168 75.224 490.224 73.944 490.224ZM79.399 482.256C79.399 477.776 82.695 474.16 87.399 474.16C92.007 474.16 95.143 477.616 95.143 481.648C95.143 482.992 94.279 483.568 92.743 483.568H83.655C83.911 485.52 85.479 487.152 88.103 487.152C89.127 487.152 90.279 486.832 91.239 486.288C91.463 486.16 91.719 486.096 92.007 486.096C92.871 486.096 93.607 486.832 93.607 487.696C93.607 488.304 93.255 488.816 92.743 489.104C91.239 489.968 89.447 490.384 87.655 490.384C82.951 490.384 79.399 487.216 79.399 482.256ZM87.399 477.392C84.871 477.392 83.783 479.28 83.591 480.816H91.207C91.111 479.344 90.087 477.392 87.399 477.392ZM105.023 486.704C105.983 486.768 106.591 487.504 106.591 488.464C106.591 489.264 106.079 489.84 105.375 490.064C104.831 490.256 104.127 490.384 103.263 490.384C100.415 490.384 98.8785 488.912 98.8785 486.16V478.096H97.8865C96.8945 478.096 96.0945 477.296 96.0945 476.336C96.0945 475.344 96.8945 474.544 97.8865 474.544H98.8785V472.144C98.8785 471.024 99.8065 470.096 100.959 470.096C102.047 470.096 102.975 471.024 102.975 472.144V474.544H104.575C105.535 474.544 106.335 475.344 106.335 476.336C106.335 477.296 105.535 478.096 104.575 478.096H102.975V485.072C102.975 486.032 103.455 486.768 104.351 486.768C104.639 486.768 104.831 486.704 105.023 486.704ZM124.247 490.384C119.159 490.384 116.087 486.672 116.087 482.256C116.087 477.872 119.159 474.16 124.247 474.16C129.367 474.16 132.439 477.872 132.439 482.256C132.439 486.672 129.367 490.384 124.247 490.384ZM124.247 486.768C126.775 486.768 128.215 484.688 128.215 482.256C128.215 479.856 126.775 477.776 124.247 477.776C121.719 477.776 120.311 479.856 120.311 482.256C120.311 484.688 121.719 486.768 124.247 486.768ZM144.926 474.16C148.318 474.16 149.95 476.08 149.95 479.088V488.176C149.95 489.296 149.054 490.224 147.902 490.224C146.814 490.224 145.886 489.296 145.886 488.176V480.656C145.886 478.512 144.766 477.776 143.038 477.776C141.438 477.776 140.19 478.672 139.518 479.6V488.176C139.518 489.296 138.59 490.224 137.502 490.224C136.35 490.224 135.454 489.296 135.454 488.176V476.368C135.454 475.216 136.35 474.288 137.47 474.288C138.622 474.288 139.55 475.216 139.55 476.368V476.496C140.542 475.376 142.398 474.16 144.926 474.16ZM155.105 490C153.985 490 153.089 489.072 153.089 487.952C153.089 487.472 153.249 487.024 153.537 486.672L160.289 478.096H154.881C153.889 478.096 153.089 477.296 153.089 476.336C153.089 475.344 153.889 474.544 154.881 474.544H164.065C165.153 474.544 166.017 475.408 166.017 476.496C166.017 476.976 165.857 477.424 165.601 477.712L158.721 486.448H164.385C165.345 486.448 166.145 487.248 166.145 488.208C166.145 489.2 165.345 490 164.385 490H155.105ZM168.305 482.256C168.305 477.776 171.601 474.16 176.305 474.16C180.913 474.16 184.049 477.616 184.049 481.648C184.049 482.992 183.185 483.568 181.649 483.568H172.561C172.817 485.52 174.385 487.152 177.009 487.152C178.033 487.152 179.185 486.832 180.145 486.288C180.369 486.16 180.625 486.096 180.913 486.096C181.777 486.096 182.513 486.832 182.513 487.696C182.513 488.304 182.161 488.816 181.649 489.104C180.145 489.968 178.353 490.384 176.561 490.384C171.857 490.384 168.305 487.216 168.305 482.256ZM176.305 477.392C173.777 477.392 172.689 479.28 172.497 480.816H180.113C180.017 479.344 178.993 477.392 176.305 477.392ZM204.004 474.16C207.972 474.16 210.852 477.104 210.852 482.256C210.852 487.408 207.972 490.384 204.004 490.384C202.18 490.384 200.516 489.616 199.236 488.016V494.064C199.236 495.184 198.308 496.112 197.22 496.112C196.068 496.112 195.172 495.184 195.172 494.064V476.368C195.172 475.216 196.068 474.256 197.22 474.256C198.34 474.256 199.268 475.216 199.268 476.368V476.464C200.484 474.96 202.148 474.16 204.004 474.16ZM202.724 486.768C205.06 486.768 206.628 484.944 206.628 482.256C206.628 479.6 205.06 477.776 202.724 477.776C201.412 477.776 199.908 478.544 199.236 479.536V485.008C199.908 485.968 201.412 486.768 202.724 486.768ZM220.483 474.16C224.003 474.16 227.235 475.568 227.235 480.016V488.112C227.235 489.264 226.339 490.224 225.187 490.224C224.163 490.224 223.267 489.456 223.139 488.4C222.115 489.616 220.291 490.384 218.275 490.384C215.811 490.384 212.899 488.72 212.899 485.264C212.899 481.648 215.811 480.336 218.275 480.336C220.323 480.336 222.147 480.976 223.171 482.224V480.08C223.171 478.512 221.827 477.488 219.779 477.488C218.563 477.488 217.475 477.808 216.355 478.512C216.131 478.64 215.843 478.736 215.555 478.736C214.723 478.736 214.019 478.032 214.019 477.168C214.019 476.592 214.339 476.08 214.755 475.824C216.515 474.672 218.499 474.16 220.483 474.16ZM219.907 487.632C221.219 487.632 222.499 487.184 223.171 486.288V484.368C222.499 483.472 221.219 483.024 219.907 483.024C218.307 483.024 216.995 483.856 216.995 485.36C216.995 486.8 218.307 487.632 219.907 487.632ZM238.882 474.256C239.97 474.256 240.578 475.088 240.578 476.08C240.578 477.072 239.938 477.904 238.658 478.096C237.602 478.224 236.002 478.8 235.33 479.792V488.176C235.33 489.296 234.402 490.224 233.314 490.224C232.162 490.224 231.266 489.296 231.266 488.176V476.4C231.266 475.248 232.162 474.32 233.282 474.32C234.434 474.32 235.362 475.216 235.362 476.368L235.33 476.656C236.002 475.728 236.93 474.864 237.858 474.512C238.242 474.352 238.53 474.256 238.882 474.256ZM249.741 486.704C250.701 486.768 251.309 487.504 251.309 488.464C251.309 489.264 250.797 489.84 250.093 490.064C249.549 490.256 248.845 490.384 247.981 490.384C245.133 490.384 243.597 488.912 243.597 486.16V478.096H242.605C241.613 478.096 240.813 477.296 240.813 476.336C240.813 475.344 241.613 474.544 242.605 474.544H243.597V472.144C243.597 471.024 244.525 470.096 245.677 470.096C246.765 470.096 247.693 471.024 247.693 472.144V474.544H249.293C250.253 474.544 251.053 475.344 251.053 476.336C251.053 477.296 250.253 478.096 249.293 478.096H247.693V485.072C247.693 486.032 248.173 486.768 249.069 486.768C249.357 486.768 249.549 486.704 249.741 486.704ZM263.082 474.16C266.474 474.16 268.106 476.08 268.106 479.088V488.176C268.106 489.296 267.21 490.224 266.058 490.224C264.97 490.224 264.042 489.296 264.042 488.176V480.656C264.042 478.512 262.922 477.776 261.194 477.776C259.594 477.776 258.346 478.672 257.674 479.6V488.176C257.674 489.296 256.746 490.224 255.658 490.224C254.506 490.224 253.61 489.296 253.61 488.176V476.368C253.61 475.216 254.506 474.288 255.626 474.288C256.778 474.288 257.706 475.216 257.706 476.368V476.496C258.698 475.376 260.554 474.16 263.082 474.16ZM271.149 482.256C271.149 477.776 274.445 474.16 279.149 474.16C283.757 474.16 286.893 477.616 286.893 481.648C286.893 482.992 286.029 483.568 284.493 483.568H275.405C275.661 485.52 277.229 487.152 279.853 487.152C280.877 487.152 282.029 486.832 282.989 486.288C283.213 486.16 283.469 486.096 283.757 486.096C284.621 486.096 285.357 486.832 285.357 487.696C285.357 488.304 285.005 488.816 284.493 489.104C282.989 489.968 281.197 490.384 279.405 490.384C274.701 490.384 271.149 487.216 271.149 482.256ZM279.149 477.392C276.621 477.392 275.533 479.28 275.341 480.816H282.957C282.861 479.344 281.837 477.392 279.149 477.392ZM297.445 474.256C298.533 474.256 299.141 475.088 299.141 476.08C299.141 477.072 298.501 477.904 297.22 478.096C296.165 478.224 294.565 478.8 293.893 479.792V488.176C293.893 489.296 292.965 490.224 291.877 490.224C290.725 490.224 289.829 489.296 289.829 488.176V476.4C289.829 475.248 290.725 474.32 291.845 474.32C292.997 474.32 293.925 475.216 293.925 476.368L293.893 476.656C294.565 475.728 295.493 474.864 296.421 474.512C296.805 474.352 297.093 474.256 297.445 474.256ZM301.232 488.88C300.72 488.592 300.368 488.016 300.368 487.408C300.368 486.48 301.136 485.712 302.064 485.712C302.384 485.712 302.672 485.808 302.928 485.936C304.176 486.704 305.712 487.248 307.12 487.248C308.88 487.248 309.712 486.64 309.712 485.68C309.712 484.592 308.368 484.208 306.608 483.856C303.952 483.344 300.528 482.704 300.528 479.024C300.528 476.432 302.8 474.16 306.864 474.16C308.848 474.16 310.544 474.672 311.952 475.536C312.432 475.792 312.752 476.304 312.752 476.88C312.752 477.744 312.048 478.448 311.184 478.448C310.928 478.448 310.608 478.384 310.416 478.256C309.424 477.648 308.208 477.264 306.896 477.264C305.424 477.264 304.464 477.808 304.464 478.704C304.464 479.664 305.68 480.016 307.408 480.368C310.064 480.88 313.616 481.584 313.616 485.424C313.616 488.24 311.216 490.384 306.928 490.384C304.848 490.384 302.864 489.872 301.232 488.88Z" fill="#4C4C4C"/>
<defs>
<filter id="filter0_d_1888_10287" x="0" y="0" width="412" height="576" filterUnits="userSpaceOnUse" color-interpolation-filters="sRGB">
<feFlood flood-opacity="0" result="BackgroundImageFix"/>
<feColorMatrix in="SourceAlpha" type="matrix" values="0 0 0 0 0 0 0 0 0 0 0 0 0 0 0 0 0 0 127 0" result="hardAlpha"/>
<feOffset dx="8" dy="8"/>
<feGaussianBlur stdDeviation="8"/>
<feComposite in2="hardAlpha" operator="out"/>
<feColorMatrix type="matrix" values="0 0 0 0 0 0 0 0 0 0 0 0 0 0 0 0 0 0 0.08 0"/>
<feBlend mode="normal" in2="BackgroundImageFix" result="effect1_dropShadow_1888_10287"/>
<feBlend mode="normal" in="SourceGraphic" in2="effect1_dropShadow_1888_10287" result="shape"/>
</filter>
</defs>
</svg>
